<svg fill="none" xmlns="http://www.w3.org/2000/svg" viewBox="0 0 34 70"><path d="M2.772 60.03h7.394v9.243H2.772v-9.242Zm20.334 0H30.5v9.243h-7.394v-9.242Z" fill="#FFDC5D"/><path d="M30.5 62.544s-2.773 1.849-7.394.924v-4.62H30.5v3.696Zm-27.728 0s2.773 1.849 7.394.924v-4.62H2.772v3.696Z" fill="#F9CA55"/><path d="M3.681 53.194h7.394v7.394H3.681v-7.394Zm18.506-.462h7.394v7.394h-7.394v-7.394Z" fill="#EF9645"/><path d="M.345 46.939s.002-1.133 1.134-1.13c1.133.004 1.13 1.136 1.13 1.136l-.018 5.253c.18-.083.368-.158.566-.222l.023-7.292s.004-1.132 1.134-1.128c1.132.003 1.129 1.136 1.129 1.136l-.02 6.858a13.6 13.6 0 0 1 .564-.04l.026-7.95s.003-1.132 1.135-1.127c1.132.004 1.128 1.136 1.128 1.136l-.026 7.948c.194.011.38.03.567.048l.023-7.43s.004-1.132 1.134-1.127c1.132.002 1.127 1.134 1.127 1.134l-.022 7.857-.003.63v.564c-3.396-.008-5.668 2.812-5.679 5.642 0 .565.566.569.566.569.01-3.4 2.28-5.652 5.677-5.642l1.664-3.87s.365-1.072 1.438-.705c1.07.363.708 1.436.708 1.436l-.826 2.87c-.327 1.14-.633 2.288-.794 3.46a6.796 6.796 0 0 1-6.746 5.85 6.794 6.794 0 0 1-6.767-6.811c0-.198.013-.387.031-.564l-.03-.004.027-8.485Zm32.574 0s-.003-1.133-1.134-1.13c-1.134.004-1.13 1.136-1.13 1.136l.017 5.253a5.23 5.23 0 0 0-.566-.222l-.023-7.292s-.004-1.132-1.134-1.128c-1.132.003-1.13 1.136-1.13 1.136l.02 6.858c-.182-.017-.371-.03-.563-.04l-.025-7.95s-.004-1.132-1.136-1.127c-1.132.004-1.127 1.136-1.127 1.136l.026 7.948c-.194.011-.381.03-.568.048l-.023-7.43s-.005-1.132-1.135-1.127c-1.131.002-1.127 1.134-1.127 1.134l.023 7.857.002.63v.564c3.396-.008 5.669 2.812 5.68 5.642 0 .565-.566.569-.566.569-.01-3.4-2.28-5.652-5.677-5.642l-1.664-3.87s-.364-1.072-1.438-.705c-1.07.363-.707 1.436-.707 1.436l.825 2.87c.327 1.14.633 2.288.794 3.46a6.796 6.796 0 0 0 6.746 5.85c3.748-.015 6.78-3.064 6.767-6.811 0-.198-.013-.387-.031-.564l.03-.004-.026-8.485Z" fill="#FFDC5D"/><path d="M21.758 41.969a.924.924 0 0 1-.73-1.489l2.753-3.563a.924.924 0 1 1 1.462 1.13L22.49 41.61a.92.92 0 0 1-.732.359Zm-10.185 0a.923.923 0 0 1-.732-.36l-2.754-3.562a.925.925 0 0 1 1.464-1.13l2.754 3.563a.925.925 0 0 1-.732 1.489Zm5.064-.424a.925.925 0 0 1-.925-.924v-3.697a.925.925 0 0 1 1.849 0v3.697c0 .51-.413.924-.924.924Z" fill="#5DADEC"/><g clip-path="url(#a)"><path d="M12.014 2.773H6.47L0 11.09h9.242l2.772-8.317Z" fill="#BDDDF4"/><path d="M33.27 11.09 26.8 2.773h-5.544l2.772 8.317h9.242Z" fill="#5DADEC"/><path d="M24.028 11.09h9.242L16.635 30.497l7.393-19.407Z" fill="#4289C1"/><path d="M9.242 11.09H0l16.635 19.407L9.242 11.09Zm2.772-8.317L9.242 11.09h14.786l-2.772-8.317h-9.242Z" fill="#8CCAF7"/><path d="M16.635 30.497 9.242 11.09h14.786l-7.393 19.407Z" fill="#5DADEC"/></g><defs><clipPath id="a"><path fill="#fff" d="M0 0h33.27v33.27H0z"/></clipPath></defs></svg>