<svg fill="none" xmlns="http://www.w3.org/2000/svg" viewBox="0 0 144 300"><path d="M12 260h32v40H12v-40Zm88 0h32v40h-32v-40Z" fill="#FFDC5D"/><path d="M132 270.88s-12 8-32 4v-20h32v16Zm-120 0s12 8 32 4v-20H12v16Z" fill="#F9CA55"/><path d="M15.932 230.416h32v32h-32v-32Zm80.092-2h32v32h-32v-32Z" fill="#EF9645"/><path d="M1.492 203.34s.012-4.9 4.908-4.888c4.904.016 4.888 4.916 4.888 4.916l-.076 22.736c.78-.36 1.596-.684 2.452-.964l.1-31.556s.016-4.9 4.908-4.884c4.896.012 4.884 4.916 4.884 4.916l-.084 29.68a58.912 58.912 0 0 1 2.44-.168l.112-34.408s.012-4.9 4.912-4.88c4.9.016 4.88 4.916 4.88 4.916l-.112 34.4c.84.048 1.648.132 2.456.208l.1-32.156s.016-4.9 4.908-4.88c4.896.012 4.876 4.908 4.876 4.908l-.096 34.004-.012 2.724v2.444c-14.696-.036-24.532 12.168-24.576 24.416 0 2.448 2.448 2.464 2.448 2.464.04-14.712 9.868-24.46 24.568-24.416l7.204-16.752s1.58-4.636 6.224-3.048c4.632 1.568 3.06 6.212 3.06 6.212l-3.572 12.42c-1.416 4.936-2.74 9.904-3.436 14.976-1.992 14.336-14.324 25.36-29.196 25.32-16.22-.068-29.34-13.26-29.288-29.48.004-.856.056-1.672.136-2.44l-.128-.016.112-36.724Zm140.976 0s-.012-4.9-4.908-4.888c-4.904.016-4.892 4.916-4.892 4.916l.076 22.736a22.574 22.574 0 0 0-2.448-.964l-.1-31.556s-.016-4.9-4.908-4.884c-4.9.012-4.888 4.916-4.888 4.916l.088 29.68a57.968 57.968 0 0 0-2.44-.168l-.108-34.408s-.016-4.9-4.916-4.88c-4.9.016-4.88 4.916-4.88 4.916l.112 34.4c-.84.048-1.648.132-2.456.208l-.1-32.156s-.02-4.9-4.912-4.88c-4.896.012-4.876 4.908-4.876 4.908l.096 34.004.012 2.724v2.444c14.696-.036 24.532 12.168 24.58 24.416 0 2.448-2.448 2.464-2.448 2.464-.044-14.712-9.872-24.46-24.568-24.416L86.38 216.12s-1.576-4.636-6.224-3.048c-4.628 1.568-3.06 6.212-3.06 6.212l3.572 12.42c1.416 4.936 2.74 9.904 3.436 14.976 1.992 14.336 14.32 25.36 29.196 25.32 16.22-.068 29.344-13.26 29.288-29.48a24.643 24.643 0 0 0-.136-2.44l.128-.016-.112-36.724Z" fill="#FFDC5D"/><path d="M94.164 181.832a3.997 3.997 0 0 1-3.16-6.444l11.916-15.42a3.99 3.99 0 0 1 5.608-.72 3.997 3.997 0 0 1 .72 5.612l-11.916 15.42a3.98 3.98 0 0 1-3.168 1.552Zm-44.08 0a3.995 3.995 0 0 1-3.168-1.556L35 164.86a4.005 4.005 0 0 1 .724-5.612 4.005 4.005 0 0 1 5.612.72l11.916 15.42a4.004 4.004 0 0 1-.72 5.612 3.99 3.99 0 0 1-2.448.832ZM72 180c-2.208 0-4-1.792-4-4v-16a3.999 3.999 0 1 1 8 0v16c0 2.208-1.788 4-4 4Z" fill="#5DADEC"/><path d="M28 0h68v96H28V0Z" fill="#E1E8ED"/><path d="M28 48h68v48H28V48Z" fill="#99AAB5"/><path d="M28 96c15.464 0 28-21.49 28-48S43.464 0 28 0 0 21.49 0 48s12.536 48 28 48Z" fill="#CCD6DD"/><path d="M96 96c17.673 0 32-21.49 32-48S113.673 0 96 0C78.327 0 64 21.49 64 48s14.327 48 32 48Z" fill="#E1E8ED"/><path d="M128 48v48c0 36 16 48 16 48H72s-16-12-16-48V44l72 4Z" fill="#E1E8ED"/><path d="M128 48c0-19.696-7.916-36.6-19.228-44H45.288C54.196 13.136 60 29.264 60 48v56c1.716 22.732 10.732 33.2 13.532 36H140.2c-4.732-6.016-12.2-19.396-12.2-44V48Z" fill="#F5F8FA"/><path d="M24 68c6.627 0 12-8.954 12-20s-5.373-20-12-20-12 8.954-12 20 5.373 20 12 20Z" fill="#99AAB5"/><path d="M13 40.04C14.848 32.96 19.072 28 24 28c6.628 0 12 8.956 12 20a31.9 31.9 0 0 1-.792 6.98C32.612 46.628 23.724 40.412 13 40.04Z" fill="#66757F"/><path d="M66 52h-6v-4h6c1.1 0 2 .9 2 2s-.9 2-2 2Zm16 0h-8c-1.1 0-2-.9-2-2s.9-2 2-2h8c1.1 0 2 .9 2 2s-.9 2-2 2Zm16 0h-8c-1.1 0-2-.9-2-2s.9-2 2-2h8c1.1 0 2 .9 2 2s-.9 2-2 2Zm16 0h-8c-1.1 0-2-.9-2-2s.9-2 2-2h8c1.1 0 2 .9 2 2s-.9 2-2 2Zm14 0h-6c-1.1 0-2-.9-2-2s.9-2 2-2h6v4Zm-62 48h-6v-4h6c1.1 0 2 .9 2 2s-.9 2-2 2Zm16 0h-8c-1.1 0-2-.9-2-2s.9-2 2-2h8c1.1 0 2 .9 2 2s-.9 2-2 2Zm16 0h-8c-1.1 0-2-.9-2-2s.9-2 2-2h8c1.1 0 2 .9 2 2s-.9 2-2 2Zm16 0h-8c-1.1 0-2-.9-2-2s.9-2 2-2h8c1.1 0 2 .9 2 2s-.9 2-2 2Zm14 0h-6c-1.1 0-2-.9-2-2s.9-2 2-2h6v4Z" fill="#CCD6DD"/></svg>